<svg xmlns="http://www.w3.org/2000/svg" xmlns:xlink="http://www.w3.org/1999/xlink" xml:space="preserve" version="1.1" shape-rendering="geometricPrecision" text-rendering="geometricPrecision" image-rendering="optimizeQuality" fill-rule="evenodd" clip-rule="evenodd" viewBox="74239 490855 646959 229336">
 <g id="Layer_x0020_1">
  <metadata id="CorelCorpID_0Corel-Layer"/>
  <path fill="none" d="M99559 479306l178694 0c10151,0 19372,4145 26048,10822 6677,6676 10822,15897 10822,26048l0 178694c0,10151 -4145,19372 -10822,26048 -6677,6677 -15897,10822 -26048,10822l-178694 0c-10151,0 -19372,-4145 -26048,-10822 -6677,-6676 -10822,-15897 -10822,-26048l0 -178694c0,-10151 4145,-19372 10822,-26048 6676,-6677 15897,-10822 26048,-10822zm0 11549l178694 0c13927,0 25321,11394 25321,25321l0 178694c0,13927 -11394,25321 -25321,25321l-178694 0c-13927,0 -25321,-11394 -25321,-25321l0 -178694c0,-13927 11394,-25321 25321,-25321z"/>
  <g id="Logo">
   <path fill="none" d="M125621 688665c253,-2666 -1673,-10322 -2211,-13629 -1633,-10039 -4313,-36801 -2670,-45415 1102,2387 7632,37479 13572,47495 556,-1009 1100,-7504 1920,-9860 3595,-10331 9741,-12727 17974,-16709 360,-17053 -29813,-42884 -36892,-45024 -3605,2130 -11050,15263 -13896,20282 -3868,6820 -7814,16857 -8141,26078 -427,12030 3253,18503 9385,24793 4307,4418 13773,10470 20960,11989z"/>
   <path fill="none" d="M150829 698025c5443,1924 13294,1240 18005,-636 16578,-6603 19786,-33197 17431,-44630 -12572,-1610 -28802,1831 -36452,7377 -10263,7441 -11595,21992 -7982,30324 1022,2356 247,663 980,1499 3691,-2750 16581,-16605 24169,-18693 -1818,3013 -6746,7463 -9317,11024 -1982,2745 -7682,10132 -6835,13736z"/>
  </g>
  <rect fill="none" x="199665" y="692379" width="52096" height="6795"/>
  <g id="_1947995306352">
   <path fill="#15803d" fill-rule="nonzero" d="M389856 592112c-5056,0 -8990,-1203 -11803,-3608 -2813,-2406 -4220,-5810 -4220,-10213l0 -39505 -9540 0 0 -16022 9540 0 0 -23972 20548 0 0 23972 11986 0 0 16022 -11986 0 0 32534c0,2772 1386,4158 4159,4158l7706 0 0 16634 -16389 0z"/>
   <path id="1" fill="#15803d" fill-rule="nonzero" d="M444142 593580c-7176,0 -13515,-1529 -19019,-4587 -5504,-3057 -9744,-7277 -12720,-12659 -2976,-5381 -4464,-11497 -4464,-18346 0,-6197 1284,-12088 3853,-17674 2569,-5585 6523,-10152 11864,-13698 5341,-3547 11966,-5320 19875,-5320 6442,0 12374,1264 17796,3792 5422,2528 9785,6564 13087,12108 3302,5545 4954,12557 4954,21037l0 3547 -40484 0c-5381,0 -8765,-163 -10151,-489l-612 1835c652,163 1142,489 1468,979 326,489 693,1264 1101,2324 734,1876 1509,3302 2324,4281 2772,3506 6849,5259 12231,5259 3017,0 5606,-734 7767,-2202 2161,-1468 3689,-3343 4587,-5626l20670 0c-2120,7502 -6034,13617 -11741,18346 -5708,4729 -13169,7094 -22382,7094zm-14432 -44887c1468,-652 2691,-1060 3669,-1223 978,-163 2079,-245 3302,-245l15166 0c1223,0 2324,82 3302,245 979,163 2202,570 3669,1223l856 -1835c-571,-163 -958,-387 -1162,-672 -204,-285 -428,-713 -672,-1284 -571,-1468 -1427,-2772 -2569,-3914 -2691,-2691 -6360,-4036 -11008,-4036 -4648,0 -8317,1345 -11007,4036 -1142,1141 -1998,2446 -2569,3914 -244,571 -469,999 -673,1284 -204,285 -591,509 -1162,672l856 1835z"/>
   <path id="2" fill="#15803d" fill-rule="nonzero" d="M484241 592112l0 -69348 20548 0 0 734c0,1305 -143,2406 -428,3302 -285,897 -836,1835 -1651,2813l1712 1223c2283,-3588 4852,-6075 7706,-7461 2854,-1386 6319,-2080 10396,-2080l3058 0 0 19569 -3914 0c-5219,0 -9132,1223 -11742,3669 -1794,1712 -3098,4036 -3914,6972 -815,2935 -1223,6727 -1223,11374l0 29231 -20548 0z"/>
   <path id="3" fill="#15803d" fill-rule="nonzero" d="M528620 592112l0 -69348 20548 0 0 734c0,1305 -143,2406 -428,3302 -285,897 -836,1835 -1651,2813l1712 1223c2283,-3588 4852,-6075 7706,-7461 2854,-1386 6319,-2080 10396,-2080l3058 0 0 19569 -3914 0c-5219,0 -9132,1223 -11742,3669 -1794,1712 -3098,4036 -3914,6972 -815,2935 -1223,6727 -1223,11374l0 29231 -20548 0z"/>
   <path id="4" fill="#15803d" fill-rule="nonzero" d="M593058 593580c-6605,0 -12047,-1814 -16328,-5443 -4281,-3629 -6421,-8786 -6421,-15472 0,-7339 2894,-12924 8684,-16756 2202,-1386 4627,-2487 7277,-3302 2650,-816 5687,-1550 9112,-2202l17979 -3180c-244,-3506 -1182,-6197 -2813,-8072 -1549,-1631 -3873,-2446 -6971,-2446 -2446,0 -4648,815 -6605,2446 -1957,1631 -3180,3873 -3669,6727l-20425 0c815,-5544 2752,-10152 5809,-13821 3058,-3669 6768,-6380 11130,-8133 4362,-1753 8990,-2630 13882,-2630 4240,0 8215,571 11925,1713 3710,1141 6910,2854 9601,5137 2691,2283 4648,4974 5870,8072 1223,3098 1978,6319 2263,9662 285,3343 428,7787 428,13331l0 32901 -20548 0 0 -1101c0,-2120 611,-4199 1835,-6238l-1835 -1101c-978,2528 -2650,4648 -5015,6360 -3506,2365 -8562,3547 -15166,3547zm5993 -15533c2446,0 4933,-571 7461,-1712 2039,-897 3547,-2039 4526,-3425 1060,-1304 1957,-3628 2691,-6971 163,-816 408,-1427 734,-1835 326,-408 856,-652 1590,-734l-367 -1957 -10519 2079 -4036 734c-2283,408 -4056,856 -5320,1346 -1264,489 -2304,1141 -3119,1957 -1223,1223 -1835,2691 -1835,4403 0,2039 774,3567 2324,4587 1549,1019 3506,1529 5871,1529z"/>
   <path fill="#15803d" fill-rule="nonzero" d="M398662 712254c-5300,0 -10417,-836 -15350,-2507 -4933,-1671 -9153,-4403 -12659,-8194 -3506,-3791 -5626,-8704 -6360,-14738l19936 0c1060,3262 2894,5728 5504,7400 2609,1672 5504,2507 8684,2507 2854,0 5198,-571 7033,-1712 1835,-1142 2752,-2650 2752,-4526 0,-2120 -1141,-3669 -3424,-4648 -2283,-978 -5911,-1957 -10885,-2935 -5463,-1060 -9989,-2222 -13576,-3486 -3588,-1264 -6686,-3363 -9295,-6299 -2609,-2935 -3914,-6931 -3914,-11986 0,-7176 2650,-12496 7950,-15961 5300,-3465 11946,-5198 19936,-5198 8561,0 15676,2141 21343,6421 5667,4281 9153,10294 10457,18040l-19447 0c-897,-3098 -2487,-5381 -4770,-6849 -2283,-1467 -4852,-2201 -7706,-2201 -2528,0 -4546,489 -6054,1468 -1509,978 -2263,2242 -2263,3791 0,2120 1162,3649 3486,4587 2324,938 6013,1855 11069,2752 5544,978 10152,2079 13821,3302 3669,1223 6829,3261 9479,6115 2650,2854 3975,6767 3975,11741 0,4566 -1203,8602 -3608,12108 -2406,3506 -5850,6217 -10335,8133 -4485,1916 -9744,2874 -15778,2874z"/>
   <path id="1" fill="#15803d" fill-rule="nonzero" d="M455464 710787c-5056,0 -8990,-1203 -11803,-3608 -2813,-2406 -4220,-5810 -4220,-10213l0 -39505 -9540 0 0 -16022 9540 0 0 -23972 20548 0 0 23972 11986 0 0 16022 -11986 0 0 32534c0,2772 1386,4158 4159,4158l7706 0 0 16634 -16389 0z"/>
   <path id="2" fill="#15803d" fill-rule="nonzero" d="M501992 712254c-11415,0 -18876,-3995 -22382,-11986 -1223,-2691 -1977,-5402 -2263,-8133 -285,-2731 -428,-6706 -428,-11925l0 -38772 20548 0 0 39016c0,3425 224,6115 672,8072 448,1957 1203,3506 2263,4648 1631,1712 4158,2569 7583,2569 4240,0 7298,-1182 9173,-3547 1712,-2365 2569,-6279 2569,-11742l0 -39016 20548 0 0 69348 -20548 0 0 -734c0,-1305 143,-2406 428,-3302 285,-897 836,-1835 1651,-2813l-1712 -1223c-2283,3588 -4852,6075 -7706,7461 -2854,1386 -6319,2079 -10396,2079z"/>
   <path id="3" fill="#15803d" fill-rule="nonzero" d="M576039 712254c-5871,0 -11089,-1529 -15656,-4587 -4566,-3057 -8133,-7339 -10702,-12842 -2569,-5504 -3853,-11762 -3853,-18774 0,-6931 1284,-13148 3853,-18652 2569,-5504 6136,-9784 10702,-12842 4566,-3057 9785,-4587 15656,-4587 4077,0 7542,693 10396,2080 2854,1386 5422,3873 7706,7461l1712 -1223c-815,-978 -1366,-1916 -1651,-2813 -285,-897 -428,-1998 -428,-3302l0 -24706 20548 0 0 93320 -20548 0 0 -734c0,-1305 143,-2406 428,-3302 285,-897 836,-1835 1651,-2813l-1712 -1223c-2283,3588 -4852,6075 -7706,7461 -2854,1386 -6319,2079 -10396,2079zm5748 -17490c4566,0 8235,-1712 11007,-5137 2772,-3425 4159,-7950 4159,-13576 0,-5544 -1386,-10029 -4159,-13454 -2772,-3425 -6441,-5137 -11007,-5137 -4566,0 -8235,1733 -11008,5198 -2772,3465 -4158,7930 -4158,13393 0,5545 1386,10050 4158,13515 2772,3465 6442,5198 11008,5198z"/>
   <path id="4" fill="#15803d" fill-rule="nonzero" d="M642992 710787l-20548 0 0 -69348 20548 0 0 69348zm-10274 -74119c-3261,0 -6013,-958 -8256,-2874 -2242,-1916 -3363,-4464 -3363,-7644 0,-3180 1121,-5748 3363,-7706 2243,-1957 4994,-2935 8256,-2935 3261,0 6013,978 8256,2935 2243,1957 3364,4525 3364,7706 0,3180 -1121,5728 -3364,7644 -2242,1916 -4994,2874 -8256,2874z"/>
   <path id="5" fill="#15803d" fill-rule="nonzero" d="M684750 712254c-7175,0 -13515,-1509 -19019,-4526 -5504,-3017 -9785,-7298 -12842,-12842 -3058,-5544 -4587,-11945 -4587,-19202 0,-7012 1529,-13230 4587,-18652 3057,-5422 7339,-9621 12842,-12598 5504,-2976 11844,-4464 19019,-4464 7176,0 13515,1509 19019,4526 5504,3017 9785,7216 12842,12598 3058,5381 4587,11578 4587,18591 0,7257 -1508,13658 -4525,19202 -3017,5544 -7278,9826 -12781,12842 -5504,3017 -11884,4526 -19141,4526zm0 -17612c4648,0 8317,-1733 11008,-5198 2691,-3465 4036,-8052 4036,-13760 0,-5463 -1366,-9866 -4097,-13209 -2731,-3343 -6380,-5015 -10946,-5015 -4566,0 -8256,1672 -11069,5015 -2813,3343 -4219,7746 -4219,13209 0,5789 1386,10396 4158,13821 2772,3424 6482,5137 11130,5137z"/>
  </g>
  <path fill="#209761" d="M303575 694870l0 -178694c0,-13927 -11394,-25321 -25321,-25321l-178694 0c-13927,0 -25321,11394 -25321,25321l0 178694c0,13927 11394,25321 25321,25321l178694 0c13927,0 25321,-11394 25321,-25321zm-103909 -2491l52096 0 0 6795 -52096 0 0 -6795zm-49852 -32243c7650,-5546 23880,-8987 36452,-7377 2354,11433 -854,38027 -17431,44630 -4710,1876 -12562,2560 -18005,636 -847,-3604 4852,-10991 6835,-13736 2571,-3561 7499,-8011 9317,-11024 -7587,2089 -20478,15943 -24169,18693 -733,-836 41,857 -980,-1499 -3613,-8332 -2281,-22882 7982,-30324zm-32500 -54613c7080,2140 37252,27971 36892,45024 -8233,3983 -14378,6378 -17974,16709 -820,2356 -1364,8851 -1920,9860 -5940,-10017 -12470,-45109 -13572,-47495 -1643,8613 1037,35375 2670,45415 538,3307 2463,10963 2211,13629 -7187,-1519 -16653,-7571 -20960,-11989 -6132,-6290 -9812,-12763 -9385,-24793 327,-9221 4274,-19257 8141,-26078 2846,-5019 10292,-18152 13896,-20282z"/>
 </g>
</svg>